<svg width="64" height="64" viewBox="0 0 64 64" fill="none" xmlns="http://www.w3.org/2000/svg">
  <path
    d="M10 31.9998C10 44.1499 19.8497 53.9997 31.9998 53.9997C44.1499 53.9997 53.9997 44.1499 53.9997 31.9998C53.9997 19.8497 44.1499 10 31.9998 10C19.8497 10 10 19.8497 10 31.9998Z"
    fill="#ECEFF2" stroke="#31506C" stroke-width="2" stroke-linecap="round" stroke-linejoin="round" />
  <path
    d="M17.2555 16.2956C21.0284 12.5468 29.5001 10.333 29.5001 10.333C29.5001 10.333 27.1417 14.1856 26.0001 16.833C24.8606 19.4753 23.6789 23.8262 23.6789 23.8262H31.5001H40.0001C40.0001 23.8262 38.5992 19.5169 37.5001 16.833C36.4406 14.2458 34.5001 10.333 34.5001 10.333C34.5001 10.333 41.7263 12.4451 45.2847 15.4589C48.7475 18.3916 52.0001 24.9419 52.0001 24.9419H40.0001C40.0001 24.9419 40.473 29.1349 40.5001 31.833C40.5314 34.9631 40.0001 39.833 40.0001 39.833H52.5001C52.5001 39.833 50.5001 44.833 46.0001 48.833C41.5001 52.833 34.5001 53.833 34.5001 53.833C34.5001 53.833 36.9016 49.6851 38.0001 46.833C39.0218 44.1799 40.0001 39.833 40.0001 39.833H31.0001H24.0001C24.0001 39.833 25.0092 44.1682 26.0001 46.833C26.9745 49.4534 29.0001 53.333 29.0001 53.333C29.0001 53.333 21.9362 52.062 18.5001 49.333C14.8098 46.4023 12.0001 39.1663 12.0001 39.1663H23.6789C23.6789 39.1663 22.9831 34.709 23.0001 31.833C23.016 29.1289 23.6789 24.9419 23.6789 24.9419H12.0001C12.0001 24.9419 14.4526 19.0807 17.2555 16.2956Z"
    fill="#B8C6D3" />
  <path
    d="M40.0001 39.833H31.0001H24.0001C24.0001 39.833 25.0092 44.1682 26.0001 46.833C26.9745 49.4534 29.0001 53.333 29.0001 53.333C29.0001 53.333 21.9362 52.062 18.5001 49.333C14.8098 46.4023 12.0001 39.1663 12.0001 39.1663H23.6789C23.6789 39.1663 22.9831 34.709 23.0001 31.833C23.016 29.1289 23.6789 24.9419 23.6789 24.9419H12.0001C12.0001 24.9419 14.4526 19.0807 17.2555 16.2956C21.0284 12.5468 29.5001 10.333 29.5001 10.333C29.5001 10.333 27.1417 14.1856 26.0001 16.833C24.8606 19.4753 23.6789 23.8262 23.6789 23.8262H31.5001H40.0001C40.0001 23.8262 38.5992 19.5169 37.5001 16.833C36.4406 14.2458 34.5001 10.333 34.5001 10.333C34.5001 10.333 41.7263 12.4451 45.2847 15.4589C48.7475 18.3916 52.0001 24.9419 52.0001 24.9419H40.0001C40.0001 24.9419 40.473 29.1349 40.5001 31.833C40.5314 34.9631 40.0001 39.833 40.0001 39.833ZM40.0001 39.833H52.5001C52.5001 39.833 50.5001 44.833 46.0001 48.833C41.5001 52.833 34.5001 53.833 34.5001 53.833C34.5001 53.833 36.9016 49.6851 38.0001 46.833C39.0218 44.1799 40.0001 39.833 40.0001 39.833Z"
    stroke="#31506C" stroke-width="2" stroke-linejoin="round" />
  <path
    d="M10 31.9998C10 44.1499 19.8497 53.9997 31.9998 53.9997C44.1499 53.9997 53.9997 44.1499 53.9997 31.9998C53.9997 19.8497 44.1499 10 31.9998 10C19.8497 10 10 19.8497 10 31.9998Z"
    stroke="#31506C" stroke-width="2" stroke-linecap="round" stroke-linejoin="round" />
  <path
    d="M34.1996 10.1094C34.1996 10.1094 40.7996 18.8007 40.7996 32.0005C40.7996 45.2004 34.1996 53.8919 34.1996 53.8919"
    stroke="#31506C" stroke-width="2" stroke-linecap="round" stroke-linejoin="round" />
  <path
    d="M29.7998 53.8919C29.7998 53.8919 23.1999 45.2004 23.1999 32.0005C23.1999 18.8007 29.7998 10.1094 29.7998 10.1094"
    stroke="#31506C" stroke-width="2" stroke-linecap="round" stroke-linejoin="round" />
  <path d="M11.3851 39.7002H52.6145" stroke="#31506C" stroke-width="2" stroke-linecap="round" stroke-linejoin="round" />
  <path d="M11.3851 24.2998H52.6145" stroke="#31506C" stroke-width="2" stroke-linecap="round" stroke-linejoin="round" />
</svg>