<svg width="64" height="64" viewBox="0 0 64 64" fill="none" xmlns="http://www.w3.org/2000/svg">
  <path fill-rule="evenodd" clip-rule="evenodd"
    d="M53.6794 27.1635C54.1375 26.6642 54.4908 26.0782 54.7183 25.44V25.3867C55.1759 24.0568 55.0895 22.5999 54.4783 21.3333C52.4922 17.3303 49.4279 13.9612 45.6306 11.6055C41.8332 9.24984 37.4535 8.00112 32.985 8H31.625C25.6405 8.37408 20.0096 10.9626 15.8293 15.2612C11.649 19.5599 9.21858 25.2608 9.01162 31.2533C8.91159 34.4672 9.45842 37.6685 10.6197 40.6672C11.7809 43.6659 13.5329 46.4003 15.7715 48.7085C18.0102 51.0171 20.6899 52.8517 23.6514 54.1043C26.613 55.3568 29.7962 56.0016 33.0116 56C34.461 56.0016 35.9071 55.8677 37.3316 55.6C37.9884 55.4893 38.6151 55.2421 39.1708 54.8749C39.7266 54.5075 40.1991 54.0277 40.5583 53.4667C40.9828 52.8256 41.2746 52.1059 41.4167 51.3504C41.5586 50.5947 41.5479 49.8181 41.385 49.0667C41.1407 47.8371 41.0156 46.5869 41.0116 45.3333C41.0215 41.7397 42.0684 38.2253 44.0266 35.212C45.985 32.1987 48.7716 29.8149 52.0516 28.3467C52.6679 28.0651 53.2215 27.6627 53.6794 27.1635ZM27 46C27 48.2091 28.7908 50 31 50C33.2092 50 35 48.2091 35 46C35 43.7909 33.2092 42 31 42C28.7908 42 27 43.7909 27 46Z"
    fill="#ECEFF2" />
  <path
    d="M54.7183 25.44L55.6603 25.7757L55.7183 25.6129V25.44H54.7183ZM53.6794 27.1635L52.9426 26.4873L52.9424 26.4875L53.6794 27.1635ZM54.7183 25.3867L53.7727 25.0613L53.7183 25.2194V25.3867H54.7183ZM54.4783 21.3333L55.379 20.8987L55.3741 20.8889L54.4783 21.3333ZM45.6306 11.6055L45.1034 12.4553L45.1034 12.4553L45.6306 11.6055ZM32.985 8L32.9852 7H32.985V8ZM31.625 8V7H31.5937L31.5626 7.00195L31.625 8ZM15.8293 15.2612L15.1124 14.5641L15.1124 14.5641L15.8293 15.2612ZM9.01162 31.2533L8.01221 31.2188L8.0121 31.2222L9.01162 31.2533ZM10.6197 40.6672L11.5522 40.3061L11.5522 40.3061L10.6197 40.6672ZM15.7715 48.7085L16.4894 48.0124L16.4894 48.0123L15.7715 48.7085ZM33.0116 56L33.0127 55L33.0111 55L33.0116 56ZM37.3316 55.6L37.1655 54.6139L37.1562 54.6155L37.1469 54.6172L37.3316 55.6ZM39.1708 54.8749L39.7221 55.7093L39.7224 55.7091L39.1708 54.8749ZM40.5583 53.4667L39.7246 52.9145L39.7203 52.921L39.7161 52.9275L40.5583 53.4667ZM41.4167 51.3504L42.3995 51.5353L42.3995 51.5349L41.4167 51.3504ZM41.385 49.0667L40.4041 49.2615L40.4058 49.2701L40.4077 49.2786L41.385 49.0667ZM41.0116 45.3333L40.0116 45.3306L40.0116 45.3365L41.0116 45.3333ZM44.0266 35.212L43.1881 34.6671L43.1881 34.6671L44.0266 35.212ZM52.0516 28.3467L52.4602 29.2594L52.4673 29.2562L52.0516 28.3467ZM53.7763 25.1043C53.5938 25.6163 53.3103 26.0866 52.9426 26.4873L54.4162 27.8396C54.9647 27.2418 55.3878 26.54 55.6603 25.7757L53.7763 25.1043ZM53.7183 25.3867V25.44H55.7183V25.3867H53.7183ZM53.5777 21.7679C54.0743 22.7971 54.1445 23.9808 53.7727 25.0613L55.6639 25.712C56.2073 24.1327 56.1047 22.4027 55.3789 20.8987L53.5777 21.7679ZM45.1034 12.4553C48.7425 14.7128 51.6791 17.9415 53.5825 21.7778L55.3741 20.8889C53.3052 16.719 50.1133 13.2096 46.1577 10.7557L45.1034 12.4553ZM32.9847 9C37.2671 9.00107 41.4643 10.1978 45.1034 12.4553L46.1577 10.7558C42.2022 8.30192 37.64 7.00117 32.9852 7L32.9847 9ZM31.625 9H32.985V7H31.625V9ZM16.5462 15.9584C20.5533 11.8379 25.9509 9.35663 31.6874 8.99805L31.5626 7.00195C25.3301 7.39153 19.466 10.0873 15.1124 14.5641L16.5462 15.9584ZM10.011 31.2878C10.2094 25.5436 12.5391 20.0789 16.5462 15.9584L15.1124 14.5641C10.7589 19.0408 8.22775 24.9779 8.01221 31.2188L10.011 31.2878ZM11.5522 40.3061C10.4393 37.4323 9.91527 34.3644 10.0111 31.2844L8.0121 31.2222C7.90791 34.57 8.47752 37.9047 9.68715 41.0283L11.5522 40.3061ZM16.4894 48.0123C14.344 45.8002 12.665 43.1798 11.5522 40.3061L9.68715 41.0283C10.8968 44.152 12.7218 47.0003 15.0537 49.4047L16.4894 48.0123ZM24.041 53.1833C21.2027 51.9829 18.6347 50.2247 16.4894 48.0124L15.0536 49.4047C17.3856 51.8095 20.177 53.7206 23.2619 55.0253L24.041 53.1833ZM33.0111 55C29.9297 55.0015 26.8792 54.3836 24.041 53.1833L23.2619 55.0253C26.3468 56.33 29.6626 57.0017 33.0121 57L33.0111 55ZM37.1469 54.6172C35.7837 54.8734 34.3998 55.0015 33.0127 55L33.0105 57C34.5222 57.0017 36.0305 56.862 37.5164 56.5828L37.1469 54.6172ZM38.6196 54.0406C38.18 54.331 37.6845 54.5264 37.1655 54.6139L37.4978 56.5861C38.2924 56.4522 39.0502 56.1532 39.7221 55.7093L38.6196 54.0406ZM39.7161 52.9275C39.4321 53.3711 39.0585 53.7504 38.6193 54.0408L39.7224 55.7091C40.3946 55.2646 40.9661 54.6843 41.4005 54.0058L39.7161 52.9275ZM40.4339 51.1655C40.3164 51.7901 40.0753 52.3849 39.7246 52.9145L41.3921 54.0188C41.8904 53.2663 42.2327 52.4217 42.3995 51.5353L40.4339 51.1655ZM40.4077 49.2786C40.5423 49.8994 40.5511 50.5412 40.4339 51.1659L42.3995 51.5349C42.566 50.6482 42.5535 49.7368 42.3623 48.8548L40.4077 49.2786ZM40.0116 45.3365C40.0159 46.6545 40.1473 47.9688 40.4041 49.2615L42.3658 48.8718C42.1341 47.7053 42.0154 46.5193 42.0116 45.3301L40.0116 45.3365ZM43.1881 34.6671C41.1251 37.8418 40.022 41.5445 40.0116 45.3306L42.0116 45.3361C42.021 41.935 43.0118 38.6088 44.8651 35.7569L43.1881 34.6671ZM51.6431 27.4339C48.1874 28.9809 45.2514 31.4923 43.1881 34.6671L44.8651 35.7569C46.7185 32.9051 49.3559 30.649 52.4602 29.2594L51.6431 27.4339ZM52.9424 26.4875C52.575 26.8881 52.1307 27.2111 51.636 27.4371L52.4673 29.2562C53.2051 28.919 53.868 28.4372 54.4163 27.8394L52.9424 26.4875ZM31 49C29.3431 49 28 47.6569 28 46H26C26 48.7614 28.2385 51 31 51V49ZM34 46C34 47.6569 32.6569 49 31 49V51C33.7615 51 36 48.7614 36 46H34ZM31 43C32.6569 43 34 44.3431 34 46H36C36 43.2386 33.7615 41 31 41V43ZM28 46C28 44.3431 29.3431 43 31 43V41C28.2385 41 26 43.2386 26 46H28Z"
    fill="#31506C" />
  <path
    d="M43.0261 23C41.3692 23 40.0261 21.6569 40.0261 20C40.0261 18.3431 41.3692 17 43.0261 17C44.683 17 46.0261 18.3431 46.0261 20C46.0261 21.6569 44.683 23 43.0261 23Z"
    fill="#B8C6D3" stroke="#31506C" stroke-width="2" stroke-linecap="round" stroke-linejoin="round" />
  <path
    d="M32.0261 19C30.3692 19 29.0261 17.6569 29.0261 16C29.0261 14.3431 30.3692 13 32.0261 13C33.683 13 35.0261 14.3431 35.0261 16C35.0261 17.6569 33.683 19 32.0261 19Z"
    fill="#B8C6D3" stroke="#31506C" stroke-width="2" stroke-linecap="round" stroke-linejoin="round" />
  <path
    d="M22.0261 24C20.3692 24 19.0261 22.6569 19.0261 21C19.0261 19.3431 20.3692 18 22.0261 18C23.683 18 25.0261 19.3431 25.0261 21C25.0261 22.6569 23.683 24 22.0261 24Z"
    fill="#B8C6D3" stroke="#31506C" stroke-width="2" stroke-linecap="round" stroke-linejoin="round" />
  <path
    d="M17.0261 34C15.3692 34 14.0261 32.6569 14.0261 31C14.0261 29.3431 15.3692 28 17.0261 28C18.683 28 20.0261 29.3431 20.0261 31C20.0261 32.6569 18.683 34 17.0261 34Z"
    fill="#B8C6D3" stroke="#31506C" stroke-width="2" stroke-linecap="round" stroke-linejoin="round" />
</svg>